<?xml version="1.0" encoding="UTF-8" standalone="no"?>
<!-- Created with Inkscape (http://www.inkscape.org/) -->

<svg
   xmlns:dc="http://purl.org/dc/elements/1.1/"
   xmlns:cc="http://creativecommons.org/ns#"
   xmlns:rdf="http://www.w3.org/1999/02/22-rdf-syntax-ns#"
   xmlns:svg="http://www.w3.org/2000/svg"
   xmlns="http://www.w3.org/2000/svg"
   xmlns:sodipodi="http://sodipodi.sourceforge.net/DTD/sodipodi-0.dtd"
   xmlns:inkscape="http://www.inkscape.org/namespaces/inkscape"
   width="191.10846"
   height="149.52789"
   id="svg2"
   sodipodi:version="0.32"
   inkscape:version="0.48.4 r9939"
   version="1.0"
   sodipodi:docname="pipeline_motivate.svg"
   inkscape:output_extension="org.inkscape.output.svg.inkscape"
   inkscape:export-filename="/home/mundkur/proj/disco/disco/doc/images/dataflow/pipeline_motivate.png"
   inkscape:export-xdpi="70"
   inkscape:export-ydpi="70">
  <defs
     id="defs4">
    <marker
       inkscape:stockid="Arrow2Lend"
       orient="auto"
       refY="0"
       refX="0"
       id="Arrow2Lend"
       style="overflow:visible">
      <path
         id="path8071"
         style="font-size:12px;fill-rule:evenodd;stroke-width:0.625;stroke-linejoin:round"
         d="M 8.7185878,4.0337352 -2.2072895,0.01601326 8.7185884,-4.0017078 c -1.7454984,2.3720609 -1.7354408,5.6174519 -6e-7,8.035443 z"
         transform="matrix(-1.1,0,0,-1.1,-1.1,0)"
         inkscape:connector-curvature="0" />
    </marker>
    <marker
       inkscape:stockid="Arrow2Mend"
       orient="auto"
       refY="0"
       refX="0"
       id="Arrow2Mend"
       style="overflow:visible">
      <path
         id="path8077"
         style="font-size:12px;fill-rule:evenodd;stroke-width:0.625;stroke-linejoin:round"
         d="M 8.7185878,4.0337352 -2.2072895,0.01601326 8.7185884,-4.0017078 c -1.7454984,2.3720609 -1.7354408,5.6174519 -6e-7,8.035443 z"
         transform="scale(-0.6,-0.6)"
         inkscape:connector-curvature="0" />
    </marker>
    <marker
       inkscape:stockid="Arrow1Mend"
       orient="auto"
       refY="0"
       refX="0"
       id="Arrow1Mend"
       style="overflow:visible">
      <path
         id="path8059"
         d="M 0,0 5,-5 -12.5,0 5,5 0,0 z"
         style="fill-rule:evenodd;stroke:#000000;stroke-width:1pt;marker-start:none"
         transform="matrix(-0.4,0,0,-0.4,-4,0)"
         inkscape:connector-curvature="0" />
    </marker>
    <marker
       inkscape:stockid="Arrow1Lend"
       orient="auto"
       refY="0"
       refX="0"
       id="Arrow1Lend"
       style="overflow:visible">
      <path
         id="path8053"
         d="M 0,0 5,-5 -12.5,0 5,5 0,0 z"
         style="fill-rule:evenodd;stroke:#000000;stroke-width:1pt;marker-start:none"
         transform="matrix(-0.8,0,0,-0.8,-10,0)"
         inkscape:connector-curvature="0" />
    </marker>
    <marker
       inkscape:stockid="Arrow1Mend"
       orient="auto"
       refY="0"
       refX="0"
       id="Arrow1Mend-8"
       style="overflow:visible">
      <path
         id="path8059-6"
         d="M 0,0 5,-5 -12.5,0 5,5 0,0 z"
         style="fill-rule:evenodd;stroke:#000000;stroke-width:1pt;marker-start:none"
         transform="matrix(-0.4,0,0,-0.4,-4,0)"
         inkscape:connector-curvature="0" />
    </marker>
    <marker
       inkscape:stockid="Arrow1Mend"
       orient="auto"
       refY="0"
       refX="0"
       id="Arrow1Mend-2"
       style="overflow:visible">
      <path
         id="path8059-4"
         d="M 0,0 5,-5 -12.5,0 5,5 0,0 z"
         style="fill-rule:evenodd;stroke:#000000;stroke-width:1pt;marker-start:none"
         transform="matrix(-0.4,0,0,-0.4,-4,0)"
         inkscape:connector-curvature="0" />
    </marker>
    <marker
       inkscape:stockid="Arrow1Mend"
       orient="auto"
       refY="0"
       refX="0"
       id="Arrow1Mend-5"
       style="overflow:visible">
      <path
         id="path8059-5"
         d="M 0,0 5,-5 -12.5,0 5,5 0,0 z"
         style="fill-rule:evenodd;stroke:#000000;stroke-width:1pt;marker-start:none"
         transform="matrix(-0.4,0,0,-0.4,-4,0)"
         inkscape:connector-curvature="0" />
    </marker>
    <marker
       inkscape:stockid="Arrow1Mend"
       orient="auto"
       refY="0"
       refX="0"
       id="Arrow1Mend-4"
       style="overflow:visible">
      <path
         id="path8059-8"
         d="M 0,0 5,-5 -12.5,0 5,5 0,0 z"
         style="fill-rule:evenodd;stroke:#000000;stroke-width:1pt;marker-start:none"
         transform="matrix(-0.4,0,0,-0.4,-4,0)"
         inkscape:connector-curvature="0" />
    </marker>
    <marker
       inkscape:stockid="Arrow1Mend"
       orient="auto"
       refY="0"
       refX="0"
       id="Arrow1Mend-53"
       style="overflow:visible">
      <path
         id="path8059-84"
         d="M 0,0 5,-5 -12.5,0 5,5 0,0 z"
         style="fill-rule:evenodd;stroke:#000000;stroke-width:1pt;marker-start:none"
         transform="matrix(-0.4,0,0,-0.4,-4,0)"
         inkscape:connector-curvature="0" />
    </marker>
    <marker
       inkscape:stockid="Arrow1Mend"
       orient="auto"
       refY="0"
       refX="0"
       id="Arrow1Mend-3"
       style="overflow:visible">
      <path
         id="path8059-9"
         d="M 0,0 5,-5 -12.5,0 5,5 0,0 z"
         style="fill-rule:evenodd;stroke:#000000;stroke-width:1pt;marker-start:none"
         transform="matrix(-0.4,0,0,-0.4,-4,0)"
         inkscape:connector-curvature="0" />
    </marker>
    <marker
       inkscape:stockid="Arrow1Mend"
       orient="auto"
       refY="0"
       refX="0"
       id="Arrow1Mend-1"
       style="overflow:visible">
      <path
         id="path8059-97"
         d="M 0,0 5,-5 -12.5,0 5,5 0,0 z"
         style="fill-rule:evenodd;stroke:#000000;stroke-width:1pt;marker-start:none"
         transform="matrix(-0.4,0,0,-0.4,-4,0)"
         inkscape:connector-curvature="0" />
    </marker>
    <marker
       inkscape:stockid="Arrow1Mend"
       orient="auto"
       refY="0"
       refX="0"
       id="Arrow1Mend-27"
       style="overflow:visible">
      <path
         id="path8059-1"
         d="M 0,0 5,-5 -12.5,0 5,5 0,0 z"
         style="fill-rule:evenodd;stroke:#000000;stroke-width:1pt;marker-start:none"
         transform="matrix(-0.4,0,0,-0.4,-4,0)"
         inkscape:connector-curvature="0" />
    </marker>
    <marker
       inkscape:stockid="Arrow1Mend"
       orient="auto"
       refY="0"
       refX="0"
       id="Arrow1Mend-87"
       style="overflow:visible">
      <path
         id="path8059-7"
         d="M 0,0 5,-5 -12.5,0 5,5 0,0 z"
         style="fill-rule:evenodd;stroke:#000000;stroke-width:1pt;marker-start:none"
         transform="matrix(-0.4,0,0,-0.4,-4,0)"
         inkscape:connector-curvature="0" />
    </marker>
    <marker
       inkscape:stockid="Arrow1Mend"
       orient="auto"
       refY="0"
       refX="0"
       id="Arrow1Mend-9"
       style="overflow:visible">
      <path
         id="path8059-47"
         d="M 0,0 5,-5 -12.5,0 5,5 0,0 z"
         style="fill-rule:evenodd;stroke:#000000;stroke-width:1pt;marker-start:none"
         transform="matrix(-0.4,0,0,-0.4,-4,0)"
         inkscape:connector-curvature="0" />
    </marker>
    <marker
       inkscape:stockid="Arrow1Mend"
       orient="auto"
       refY="0"
       refX="0"
       id="Arrow1Mend-46"
       style="overflow:visible">
      <path
         id="path8059-85"
         d="M 0,0 5,-5 -12.5,0 5,5 0,0 z"
         style="fill-rule:evenodd;stroke:#000000;stroke-width:1pt;marker-start:none"
         transform="matrix(-0.4,0,0,-0.4,-4,0)"
         inkscape:connector-curvature="0" />
    </marker>
    <marker
       inkscape:stockid="Arrow1Mend"
       orient="auto"
       refY="0"
       refX="0"
       id="Arrow1Mend-46-4"
       style="overflow:visible">
      <path
         id="path8059-85-9"
         d="M 0,0 5,-5 -12.5,0 5,5 0,0 z"
         style="fill-rule:evenodd;stroke:#000000;stroke-width:1pt;marker-start:none"
         transform="matrix(-0.4,0,0,-0.4,-4,0)"
         inkscape:connector-curvature="0" />
    </marker>
    <marker
       inkscape:stockid="Arrow1Mend"
       orient="auto"
       refY="0"
       refX="0"
       id="Arrow1Mend-46-45"
       style="overflow:visible">
      <path
         id="path8059-85-7"
         d="M 0,0 5,-5 -12.5,0 5,5 0,0 z"
         style="fill-rule:evenodd;stroke:#000000;stroke-width:1pt;marker-start:none"
         transform="matrix(-0.4,0,0,-0.4,-4,0)"
         inkscape:connector-curvature="0" />
    </marker>
    <marker
       inkscape:stockid="Arrow1Mend"
       orient="auto"
       refY="0"
       refX="0"
       id="Arrow1Mend-46-1"
       style="overflow:visible">
      <path
         id="path8059-85-1"
         d="M 0,0 5,-5 -12.5,0 5,5 0,0 z"
         style="fill-rule:evenodd;stroke:#000000;stroke-width:1pt;marker-start:none"
         transform="matrix(-0.4,0,0,-0.4,-4,0)"
         inkscape:connector-curvature="0" />
    </marker>
    <marker
       inkscape:stockid="Arrow1Mend"
       orient="auto"
       refY="0"
       refX="0"
       id="Arrow1Mend-46-1-8"
       style="overflow:visible">
      <path
         id="path8059-85-1-5"
         d="M 0,0 5,-5 -12.5,0 5,5 0,0 z"
         style="fill-rule:evenodd;stroke:#000000;stroke-width:1pt;marker-start:none"
         transform="matrix(-0.4,0,0,-0.4,-4,0)"
         inkscape:connector-curvature="0" />
    </marker>
    <marker
       inkscape:stockid="Arrow1Mend"
       orient="auto"
       refY="0"
       refX="0"
       id="Arrow1Mend-46-1-7"
       style="overflow:visible">
      <path
         id="path8059-85-1-2"
         d="M 0,0 5,-5 -12.5,0 5,5 0,0 z"
         style="fill-rule:evenodd;stroke:#000000;stroke-width:1pt;marker-start:none"
         transform="matrix(-0.4,0,0,-0.4,-4,0)"
         inkscape:connector-curvature="0" />
    </marker>
    <marker
       inkscape:stockid="Arrow1Mend"
       orient="auto"
       refY="0"
       refX="0"
       id="Arrow1Mend-46-1-2"
       style="overflow:visible">
      <path
         id="path8059-85-1-0"
         d="M 0,0 5,-5 -12.5,0 5,5 0,0 z"
         style="fill-rule:evenodd;stroke:#000000;stroke-width:1pt;marker-start:none"
         transform="matrix(-0.4,0,0,-0.4,-4,0)"
         inkscape:connector-curvature="0" />
    </marker>
    <marker
       inkscape:stockid="Arrow1Mend"
       orient="auto"
       refY="0"
       refX="0"
       id="Arrow1Mend-46-1-2-8"
       style="overflow:visible">
      <path
         id="path8059-85-1-0-6"
         d="M 0,0 5,-5 -12.5,0 5,5 0,0 z"
         style="fill-rule:evenodd;stroke:#000000;stroke-width:1pt;marker-start:none"
         transform="matrix(-0.4,0,0,-0.4,-4,0)"
         inkscape:connector-curvature="0" />
    </marker>
    <marker
       inkscape:stockid="Arrow1Mend"
       orient="auto"
       refY="0"
       refX="0"
       id="Arrow1Mend-46-1-2-3"
       style="overflow:visible">
      <path
         id="path8059-85-1-0-65"
         d="M 0,0 5,-5 -12.5,0 5,5 0,0 z"
         style="fill-rule:evenodd;stroke:#000000;stroke-width:1pt;marker-start:none"
         transform="matrix(-0.4,0,0,-0.4,-4,0)"
         inkscape:connector-curvature="0" />
    </marker>
    <marker
       inkscape:stockid="Arrow1Mend"
       orient="auto"
       refY="0"
       refX="0"
       id="Arrow1Mend-46-1-2-0"
       style="overflow:visible">
      <path
         id="path8059-85-1-0-0"
         d="M 0,0 5,-5 -12.5,0 5,5 0,0 z"
         style="fill-rule:evenodd;stroke:#000000;stroke-width:1pt;marker-start:none"
         transform="matrix(-0.4,0,0,-0.4,-4,0)"
         inkscape:connector-curvature="0" />
    </marker>
    <marker
       inkscape:stockid="Arrow1Mend"
       orient="auto"
       refY="0"
       refX="0"
       id="Arrow1Mend-46-6"
       style="overflow:visible">
      <path
         id="path8059-85-15"
         d="M 0,0 5,-5 -12.5,0 5,5 0,0 z"
         style="fill-rule:evenodd;stroke:#000000;stroke-width:1pt;marker-start:none"
         transform="matrix(-0.4,0,0,-0.4,-4,0)"
         inkscape:connector-curvature="0" />
    </marker>
    <marker
       inkscape:stockid="Arrow1Mend"
       orient="auto"
       refY="0"
       refX="0"
       id="Arrow1Mend-46-1-3"
       style="overflow:visible">
      <path
         id="path8059-85-1-8"
         d="M 0,0 5,-5 -12.5,0 5,5 0,0 z"
         style="fill-rule:evenodd;stroke:#000000;stroke-width:1pt;marker-start:none"
         transform="matrix(-0.4,0,0,-0.4,-4,0)"
         inkscape:connector-curvature="0" />
    </marker>
    <marker
       inkscape:stockid="Arrow1Mend"
       orient="auto"
       refY="0"
       refX="0"
       id="Arrow1Mend-46-1-2-2"
       style="overflow:visible">
      <path
         id="path8059-85-1-0-2"
         d="M 0,0 5,-5 -12.5,0 5,5 0,0 z"
         style="fill-rule:evenodd;stroke:#000000;stroke-width:1pt;marker-start:none"
         transform="matrix(-0.4,0,0,-0.4,-4,0)"
         inkscape:connector-curvature="0" />
    </marker>
    <marker
       inkscape:stockid="Arrow1Mend"
       orient="auto"
       refY="0"
       refX="0"
       id="Arrow1Mend-46-47"
       style="overflow:visible">
      <path
         id="path8059-85-8"
         d="M 0,0 5,-5 -12.5,0 5,5 0,0 z"
         style="fill-rule:evenodd;stroke:#000000;stroke-width:1pt;marker-start:none"
         transform="matrix(-0.4,0,0,-0.4,-4,0)"
         inkscape:connector-curvature="0" />
    </marker>
    <marker
       inkscape:stockid="Arrow1Mend"
       orient="auto"
       refY="0"
       refX="0"
       id="Arrow1Mend-46-1-29"
       style="overflow:visible">
      <path
         id="path8059-85-1-1"
         d="M 0,0 5,-5 -12.5,0 5,5 0,0 z"
         style="fill-rule:evenodd;stroke:#000000;stroke-width:1pt;marker-start:none"
         transform="matrix(-0.4,0,0,-0.4,-4,0)"
         inkscape:connector-curvature="0" />
    </marker>
    <marker
       inkscape:stockid="Arrow1Mend"
       orient="auto"
       refY="0"
       refX="0"
       id="Arrow1Mend-46-1-2-6"
       style="overflow:visible">
      <path
         id="path8059-85-1-0-9"
         d="M 0,0 5,-5 -12.5,0 5,5 0,0 z"
         style="fill-rule:evenodd;stroke:#000000;stroke-width:1pt;marker-start:none"
         transform="matrix(-0.4,0,0,-0.4,-4,0)"
         inkscape:connector-curvature="0" />
    </marker>
    <marker
       inkscape:stockid="Arrow1Mend"
       orient="auto"
       refY="0"
       refX="0"
       id="Arrow1Mend-46-9"
       style="overflow:visible">
      <path
         id="path8059-85-4"
         d="M 0,0 5,-5 -12.5,0 5,5 0,0 z"
         style="fill-rule:evenodd;stroke:#000000;stroke-width:1pt;marker-start:none"
         transform="matrix(-0.4,0,0,-0.4,-4,0)"
         inkscape:connector-curvature="0" />
    </marker>
    <marker
       inkscape:stockid="Arrow1Mend"
       orient="auto"
       refY="0"
       refX="0"
       id="Arrow1Mend-46-1-5"
       style="overflow:visible">
      <path
         id="path8059-85-1-03"
         d="M 0,0 5,-5 -12.5,0 5,5 0,0 z"
         style="fill-rule:evenodd;stroke:#000000;stroke-width:1pt;marker-start:none"
         transform="matrix(-0.4,0,0,-0.4,-4,0)"
         inkscape:connector-curvature="0" />
    </marker>
    <marker
       inkscape:stockid="Arrow1Mend"
       orient="auto"
       refY="0"
       refX="0"
       id="Arrow1Mend-46-1-2-7"
       style="overflow:visible">
      <path
         id="path8059-85-1-0-3"
         d="M 0,0 5,-5 -12.5,0 5,5 0,0 z"
         style="fill-rule:evenodd;stroke:#000000;stroke-width:1pt;marker-start:none"
         transform="matrix(-0.4,0,0,-0.4,-4,0)"
         inkscape:connector-curvature="0" />
    </marker>
    <marker
       inkscape:stockid="Arrow1Mend"
       orient="auto"
       refY="0"
       refX="0"
       id="Arrow1Mend-46-5"
       style="overflow:visible">
      <path
         id="path8059-85-16"
         d="M 0,0 5,-5 -12.5,0 5,5 0,0 z"
         style="fill-rule:evenodd;stroke:#000000;stroke-width:1pt;marker-start:none"
         transform="matrix(-0.4,0,0,-0.4,-4,0)"
         inkscape:connector-curvature="0" />
    </marker>
    <marker
       inkscape:stockid="Arrow1Mend"
       orient="auto"
       refY="0"
       refX="0"
       id="Arrow1Mend-46-17"
       style="overflow:visible">
      <path
         id="path8059-85-5"
         d="M 0,0 5,-5 -12.5,0 5,5 0,0 z"
         style="fill-rule:evenodd;stroke:#000000;stroke-width:1pt;marker-start:none"
         transform="matrix(-0.4,0,0,-0.4,-4,0)"
         inkscape:connector-curvature="0" />
    </marker>
    <marker
       inkscape:stockid="Arrow1Mend"
       orient="auto"
       refY="0"
       refX="0"
       id="Arrow1Mend-46-41"
       style="overflow:visible">
      <path
         id="path8059-85-0"
         d="M 0,0 5,-5 -12.5,0 5,5 0,0 z"
         style="fill-rule:evenodd;stroke:#000000;stroke-width:1pt;marker-start:none"
         transform="matrix(-0.4,0,0,-0.4,-4,0)"
         inkscape:connector-curvature="0" />
    </marker>
    <marker
       inkscape:stockid="Arrow2Mend"
       orient="auto"
       refY="0"
       refX="0"
       id="Arrow2Mend-0"
       style="overflow:visible">
      <path
         id="path8077-7"
         style="font-size:12px;fill-rule:evenodd;stroke-width:0.625;stroke-linejoin:round"
         d="M 8.7185878,4.0337352 -2.2072895,0.01601326 8.7185884,-4.0017078 c -1.7454984,2.3720609 -1.7354408,5.6174519 -6e-7,8.035443 z"
         transform="scale(-0.6,-0.6)"
         inkscape:connector-curvature="0" />
    </marker>
    <marker
       inkscape:stockid="Arrow2Mend"
       orient="auto"
       refY="0"
       refX="0"
       id="Arrow2Mend-9"
       style="overflow:visible">
      <path
         id="path8077-0"
         style="font-size:12px;fill-rule:evenodd;stroke-width:0.625;stroke-linejoin:round"
         d="M 8.7185878,4.0337352 -2.2072895,0.01601326 8.7185884,-4.0017078 c -1.7454984,2.3720609 -1.7354408,5.6174519 -6e-7,8.035443 z"
         transform="scale(-0.6,-0.6)"
         inkscape:connector-curvature="0" />
    </marker>
    <marker
       inkscape:stockid="Arrow1Mend"
       orient="auto"
       refY="0"
       refX="0"
       id="Arrow1Mend-46-7"
       style="overflow:visible">
      <path
         id="path8059-85-09"
         d="M 0,0 5,-5 -12.5,0 5,5 0,0 z"
         style="fill-rule:evenodd;stroke:#000000;stroke-width:1pt;marker-start:none"
         transform="matrix(-0.4,0,0,-0.4,-4,0)"
         inkscape:connector-curvature="0" />
    </marker>
    <marker
       inkscape:stockid="Arrow1Mend"
       orient="auto"
       refY="0"
       refX="0"
       id="Arrow1Mend-46-1-1"
       style="overflow:visible">
      <path
         id="path8059-85-1-25"
         d="M 0,0 5,-5 -12.5,0 5,5 0,0 z"
         style="fill-rule:evenodd;stroke:#000000;stroke-width:1pt;marker-start:none"
         transform="matrix(-0.4,0,0,-0.4,-4,0)"
         inkscape:connector-curvature="0" />
    </marker>
    <marker
       inkscape:stockid="Arrow1Mend"
       orient="auto"
       refY="0"
       refX="0"
       id="Arrow1Mend-46-1-2-30"
       style="overflow:visible">
      <path
         id="path8059-85-1-0-93"
         d="M 0,0 5,-5 -12.5,0 5,5 0,0 z"
         style="fill-rule:evenodd;stroke:#000000;stroke-width:1pt;marker-start:none"
         transform="matrix(-0.4,0,0,-0.4,-4,0)"
         inkscape:connector-curvature="0" />
    </marker>
    <marker
       inkscape:stockid="Arrow1Mend"
       orient="auto"
       refY="0"
       refX="0"
       id="Arrow1Mend-46-48"
       style="overflow:visible">
      <path
         id="path8059-85-47"
         d="M 0,0 5,-5 -12.5,0 5,5 0,0 z"
         style="fill-rule:evenodd;stroke:#000000;stroke-width:1pt;marker-start:none"
         transform="matrix(-0.4,0,0,-0.4,-4,0)"
         inkscape:connector-curvature="0" />
    </marker>
    <marker
       inkscape:stockid="Arrow1Mend"
       orient="auto"
       refY="0"
       refX="0"
       id="Arrow1Mend-46-1-6"
       style="overflow:visible">
      <path
         id="path8059-85-1-3"
         d="M 0,0 5,-5 -12.5,0 5,5 0,0 z"
         style="fill-rule:evenodd;stroke:#000000;stroke-width:1pt;marker-start:none"
         transform="matrix(-0.4,0,0,-0.4,-4,0)"
         inkscape:connector-curvature="0" />
    </marker>
    <marker
       inkscape:stockid="Arrow1Mend"
       orient="auto"
       refY="0"
       refX="0"
       id="Arrow1Mend-46-1-2-9"
       style="overflow:visible">
      <path
         id="path8059-85-1-0-97"
         d="M 0,0 5,-5 -12.5,0 5,5 0,0 z"
         style="fill-rule:evenodd;stroke:#000000;stroke-width:1pt;marker-start:none"
         transform="matrix(-0.4,0,0,-0.4,-4,0)"
         inkscape:connector-curvature="0" />
    </marker>
    <marker
       inkscape:stockid="Arrow2Mend"
       orient="auto"
       refY="0"
       refX="0"
       id="Arrow2Mend-9-1"
       style="overflow:visible">
      <path
         id="path8077-0-4"
         style="font-size:12px;fill-rule:evenodd;stroke-width:0.625;stroke-linejoin:round"
         d="M 8.7185878,4.0337352 -2.2072895,0.01601326 8.7185884,-4.0017078 c -1.7454984,2.3720609 -1.7354408,5.6174519 -6e-7,8.035443 z"
         transform="scale(-0.6,-0.6)"
         inkscape:connector-curvature="0" />
    </marker>
    <marker
       inkscape:stockid="Arrow2Mend"
       orient="auto"
       refY="0"
       refX="0"
       id="marker6929"
       style="overflow:visible">
      <path
         id="path6931"
         style="font-size:12px;fill-rule:evenodd;stroke-width:0.625;stroke-linejoin:round"
         d="M 8.7185878,4.0337352 -2.2072895,0.01601326 8.7185884,-4.0017078 c -1.7454984,2.3720609 -1.7354408,5.6174519 -6e-7,8.035443 z"
         transform="scale(-0.6,-0.6)"
         inkscape:connector-curvature="0" />
    </marker>
    <marker
       inkscape:stockid="Arrow2Mend"
       orient="auto"
       refY="0"
       refX="0"
       id="marker6933"
       style="overflow:visible">
      <path
         id="path6935"
         style="font-size:12px;fill-rule:evenodd;stroke-width:0.625;stroke-linejoin:round"
         d="M 8.7185878,4.0337352 -2.2072895,0.01601326 8.7185884,-4.0017078 c -1.7454984,2.3720609 -1.7354408,5.6174519 -6e-7,8.035443 z"
         transform="scale(-0.6,-0.6)"
         inkscape:connector-curvature="0" />
    </marker>
    <marker
       inkscape:stockid="Arrow2Mend"
       orient="auto"
       refY="0"
       refX="0"
       id="Arrow2Mend-9-5"
       style="overflow:visible">
      <path
         id="path8077-0-8"
         style="font-size:12px;fill-rule:evenodd;stroke-width:0.625;stroke-linejoin:round"
         d="M 8.7185878,4.0337352 -2.2072895,0.01601326 8.7185884,-4.0017078 c -1.7454984,2.3720609 -1.7354408,5.6174519 -6e-7,8.035443 z"
         transform="scale(-0.6,-0.6)"
         inkscape:connector-curvature="0" />
    </marker>
    <marker
       inkscape:stockid="Arrow2Mend"
       orient="auto"
       refY="0"
       refX="0"
       id="marker6929-6"
       style="overflow:visible">
      <path
         id="path6931-7"
         style="font-size:12px;fill-rule:evenodd;stroke-width:0.625;stroke-linejoin:round"
         d="M 8.7185878,4.0337352 -2.2072895,0.01601326 8.7185884,-4.0017078 c -1.7454984,2.3720609 -1.7354408,5.6174519 -6e-7,8.035443 z"
         transform="scale(-0.6,-0.6)"
         inkscape:connector-curvature="0" />
    </marker>
    <marker
       inkscape:stockid="Arrow2Mend"
       orient="auto"
       refY="0"
       refX="0"
       id="marker6933-9"
       style="overflow:visible">
      <path
         id="path6935-9"
         style="font-size:12px;fill-rule:evenodd;stroke-width:0.625;stroke-linejoin:round"
         d="M 8.7185878,4.0337352 -2.2072895,0.01601326 8.7185884,-4.0017078 c -1.7454984,2.3720609 -1.7354408,5.6174519 -6e-7,8.035443 z"
         transform="scale(-0.6,-0.6)"
         inkscape:connector-curvature="0" />
    </marker>
  </defs>
  <sodipodi:namedview
     id="base"
     pagecolor="#ffffff"
     bordercolor="#666666"
     borderopacity="1.0"
     gridtolerance="10000"
     guidetolerance="10"
     objecttolerance="10"
     inkscape:pageopacity="0.0"
     inkscape:pageshadow="2"
     inkscape:zoom="0.48699288"
     inkscape:cx="142.7948"
     inkscape:cy="363.3185"
     inkscape:document-units="px"
     inkscape:current-layer="layer1"
     inkscape:window-width="958"
     inkscape:window-height="1183"
     inkscape:window-x="0"
     inkscape:window-y="15"
     inkscape:connector-spacing="0"
     showguides="true"
     inkscape:guide-bbox="true"
     showgrid="true"
     inkscape:window-maximized="0"
     fit-margin-top="0"
     fit-margin-left="0"
     fit-margin-right="0"
     fit-margin-bottom="0"
     showborder="false"
     inkscape:showpageshadow="false">
    <inkscape:grid
       type="xygrid"
       id="grid3050"
       empspacing="5"
       visible="true"
       enabled="true"
       snapvisiblegridlinesonly="true"
       originx="-287.11807px"
       originy="-747.76612px" />
  </sodipodi:namedview>
  <metadata
     id="metadata7">
    <rdf:RDF>
      <cc:Work
         rdf:about="">
        <dc:format>image/svg+xml</dc:format>
        <dc:type
           rdf:resource="http://purl.org/dc/dcmitype/StillImage" />
        <dc:title />
      </cc:Work>
    </rdf:RDF>
  </metadata>
  <g
     inkscape:groupmode="layer"
     id="layer2"
     inkscape:label="Layer 0"
     transform="translate(-287.11807,-92.70599)" />
  <g
     inkscape:label="Layer 1"
     inkscape:groupmode="layer"
     id="layer1"
     transform="translate(-296.66156,358.24301)">
    <text
       xml:space="preserve"
       style="font-size:18px;font-style:normal;font-variant:normal;font-weight:normal;font-stretch:normal;text-align:start;line-height:125%;letter-spacing:0px;word-spacing:0px;writing-mode:lr-tb;text-anchor:start;fill:#000000;fill-opacity:1;stroke:none;font-family:Liberation Serif;-inkscape-font-specification:Liberation Serif"
       x="371.72394"
       y="176.08115"
       id="text6999"
       sodipodi:linespacing="125%"
       transform="translate(9.5434914,-450.94899)"><tspan
         sodipodi:role="line"
         id="tspan7001"
         x="371.72394"
         y="176.08115" /></text>
    <g
       id="g3211"
       transform="translate(-40,420)">
      <g
         transform="translate(3.4327927e-5,-490.00001)"
         id="g3166">
        <rect
           style="fill:#ffffff;fill-opacity:1;stroke:#000000;stroke-width:1.56045377;stroke-linejoin:round;stroke-miterlimit:0.89999998;stroke-opacity:1;stroke-dasharray:none;stroke-dashoffset:0"
           id="rect4120"
           width="60.326893"
           height="161.45473"
           x="269.24136"
           y="-634.83344"
           ry="1.1038882" />
        <rect
           style="fill:#ffffff;fill-opacity:1;stroke:#000000;stroke-width:1.56045377;stroke-linejoin:round;stroke-miterlimit:0.89999998;stroke-opacity:1;stroke-dasharray:none;stroke-dashoffset:0"
           id="rect4120-2"
           width="60.326893"
           height="161.45473"
           x="437.86752"
           y="-634.90735"
           ry="1.1038882" />
        <path
           style="fill:none;stroke:#000000;stroke-width:1.61013234px;stroke-linecap:butt;stroke-linejoin:miter;stroke-opacity:1"
           d="m 323.09124,-496.12199 0,0"
           id="path8264"
           inkscape:connector-type="polyline"
           inkscape:connector-curvature="0" />
        <path
           sodipodi:type="arc"
           style="fill:#747a81;fill-opacity:1;stroke:#414141;stroke-width:1.79999995;stroke-miterlimit:4;stroke-opacity:0.77134645;stroke-dasharray:none"
           id="path2160"
           sodipodi:cx="77.781746"
           sodipodi:cy="82.615738"
           sodipodi:rx="23.233509"
           sodipodi:ry="21.213203"
           d="m 101.01525,82.615738 c 0,11.715729 -10.401991,21.213202 -23.233504,21.213202 -12.831513,0 -23.233509,-9.497473 -23.233509,-21.213202 0,-11.715729 10.401996,-21.213204 23.233509,-21.213204 12.831513,0 23.233504,9.497475 23.233504,21.213204 z"
           transform="matrix(0.86565248,0,0,0.96931482,232.40378,-686.65465)"
           inkscape:export-filename="/home/tuulos/concepts-1.png"
           inkscape:export-xdpi="70"
           inkscape:export-ydpi="70" />
        <path
           sodipodi:type="arc"
           style="fill:#747a81;fill-opacity:1;stroke:#414141;stroke-width:1.79999995;stroke-miterlimit:4;stroke-opacity:0.77134645;stroke-dasharray:none"
           id="path2160-5"
           sodipodi:cx="77.781746"
           sodipodi:cy="82.615738"
           sodipodi:rx="23.233509"
           sodipodi:ry="21.213203"
           d="m 101.01525,82.615738 c 0,11.715729 -10.401991,21.213202 -23.233504,21.213202 -12.831513,0 -23.233509,-9.497473 -23.233509,-21.213202 0,-11.715729 10.401996,-21.213204 23.233509,-21.213204 12.831513,0 23.233504,9.497475 23.233504,21.213204 z"
           transform="matrix(0.86565248,0,0,0.96931482,231.98335,-633.83462)"
           inkscape:export-filename="/home/tuulos/concepts-1.png"
           inkscape:export-xdpi="70"
           inkscape:export-ydpi="70" />
        <path
           sodipodi:type="arc"
           style="fill:#747a81;fill-opacity:1;stroke:#414141;stroke-width:1.79999995;stroke-miterlimit:4;stroke-opacity:0.77134645;stroke-dasharray:none"
           id="path2160-1"
           sodipodi:cx="77.781746"
           sodipodi:cy="82.615738"
           sodipodi:rx="23.233509"
           sodipodi:ry="21.213203"
           d="m 101.01525,82.615738 c 0,11.715729 -10.401991,21.213202 -23.233504,21.213202 -12.831513,0 -23.233509,-9.497473 -23.233509,-21.213202 0,-11.715729 10.401996,-21.213204 23.233509,-21.213204 12.831513,0 23.233504,9.497475 23.233504,21.213204 z"
           transform="matrix(0.86565248,0,0,0.96931482,231.9401,-581.0146)"
           inkscape:export-filename="/home/tuulos/concepts-1.png"
           inkscape:export-xdpi="70"
           inkscape:export-ydpi="70" />
        <path
           sodipodi:type="arc"
           style="fill:#747a81;fill-opacity:1;stroke:#414141;stroke-width:1.79999995;stroke-miterlimit:4;stroke-opacity:0.77134645;stroke-dasharray:none"
           id="path2160-59"
           sodipodi:cx="77.781746"
           sodipodi:cy="82.615738"
           sodipodi:rx="23.233509"
           sodipodi:ry="21.213203"
           d="m 101.01525,82.615738 c 0,11.715729 -10.401991,21.213202 -23.233504,21.213202 -12.831513,0 -23.233509,-9.497473 -23.233509,-21.213202 0,-11.715729 10.401996,-21.213204 23.233509,-21.213204 12.831513,0 23.233504,9.497475 23.233504,21.213204 z"
           transform="matrix(0.86565248,0,0,0.96931482,401.01334,-668.88929)"
           inkscape:export-filename="/home/tuulos/concepts-1.png"
           inkscape:export-xdpi="70"
           inkscape:export-ydpi="70" />
        <path
           sodipodi:type="arc"
           style="fill:#747a81;fill-opacity:1;stroke:#414141;stroke-width:1.79999995;stroke-miterlimit:4;stroke-opacity:0.77134645;stroke-dasharray:none"
           id="path2160-59-2"
           sodipodi:cx="77.781746"
           sodipodi:cy="82.615738"
           sodipodi:rx="23.233509"
           sodipodi:ry="21.213203"
           d="m 101.01525,82.615738 c 0,11.715729 -10.401991,21.213202 -23.233504,21.213202 -12.831513,0 -23.233509,-9.497473 -23.233509,-21.213202 0,-11.715729 10.401996,-21.213204 23.233509,-21.213204 12.831513,0 23.233504,9.497475 23.233504,21.213204 z"
           transform="matrix(0.86565248,0,0,0.96931482,401.07523,-600.08317)"
           inkscape:export-filename="/home/tuulos/concepts-1.png"
           inkscape:export-xdpi="70"
           inkscape:export-ydpi="70" />
        <path
           style="fill:none;stroke:#000000;stroke-width:1.61013234px;stroke-linecap:butt;stroke-linejoin:miter;stroke-opacity:1;marker-end:url(#Arrow1Mend-46)"
           d="m 321.58628,-606.61137 30.65304,-14.45064"
           id="path9917"
           inkscape:connector-curvature="0"
           sodipodi:nodetypes="cc" />
        <path
           style="fill:none;stroke:#000000;stroke-width:1.61013234px;stroke-linecap:butt;stroke-linejoin:miter;stroke-opacity:1;marker-end:url(#Arrow1Mend-46-1)"
           d="m 321.5678,-606.34494 30.26975,-0.21123"
           id="path10188"
           inkscape:connector-curvature="0"
           sodipodi:nodetypes="cc" />
        <path
           style="fill:none;stroke:#000000;stroke-width:1.61013234px;stroke-linecap:butt;stroke-linejoin:miter;stroke-opacity:1;marker-end:url(#Arrow1Mend-46-1-2)"
           d="m 321.35759,-606.55617 30.47996,15.8423"
           id="path10452"
           inkscape:connector-curvature="0"
           sodipodi:nodetypes="cc" />
        <path
           style="fill:none;stroke:#000000;stroke-width:1.61013234px;stroke-linecap:butt;stroke-linejoin:miter;stroke-opacity:1;marker-end:url(#Arrow1Mend-46)"
           d="m 320.96419,-553.65502 30.65305,-14.45065"
           id="path9917-6"
           inkscape:connector-curvature="0"
           sodipodi:nodetypes="cc" />
        <path
           style="fill:none;stroke:#000000;stroke-width:1.61013234px;stroke-linecap:butt;stroke-linejoin:miter;stroke-opacity:1;marker-end:url(#Arrow1Mend-46-1)"
           d="m 320.9457,-553.38859 30.26975,-0.21123"
           id="path10188-9"
           inkscape:connector-curvature="0"
           sodipodi:nodetypes="cc" />
        <path
           style="fill:none;stroke:#000000;stroke-width:1.61013234px;stroke-linecap:butt;stroke-linejoin:miter;stroke-opacity:1;marker-end:url(#Arrow1Mend-46-1-2)"
           d="m 320.73549,-553.59982 30.47996,15.84229"
           id="path10452-5"
           inkscape:connector-curvature="0"
           sodipodi:nodetypes="cc" />
        <path
           style="fill:none;stroke:#000000;stroke-width:1.61013234px;stroke-linecap:butt;stroke-linejoin:miter;stroke-opacity:1;marker-end:url(#Arrow1Mend-46)"
           d="m 321.26383,-501.39121 30.65304,-14.45064"
           id="path9917-4"
           inkscape:connector-curvature="0"
           sodipodi:nodetypes="cc" />
        <path
           style="fill:none;stroke:#000000;stroke-width:1.61013234px;stroke-linecap:butt;stroke-linejoin:miter;stroke-opacity:1;marker-end:url(#Arrow1Mend-46-1)"
           d="m 321.24534,-501.12477 30.26976,-0.21124"
           id="path10188-8"
           inkscape:connector-curvature="0"
           sodipodi:nodetypes="cc" />
        <path
           style="fill:none;stroke:#000000;stroke-width:1.61013234px;stroke-linecap:butt;stroke-linejoin:miter;stroke-opacity:1;marker-end:url(#Arrow1Mend-46-1-2)"
           d="m 321.03513,-501.33601 30.47997,15.8423"
           id="path10452-8"
           inkscape:connector-curvature="0"
           sodipodi:nodetypes="cc" />
        <path
           style="fill:none;stroke:#000000;stroke-width:1.61013234px;stroke-linecap:butt;stroke-linejoin:miter;stroke-opacity:1;marker-end:url(#Arrow2Mend-9)"
           d="m 416.39952,-600.74172 28.46352,13.30335"
           id="path5834"
           inkscape:connector-curvature="0" />
        <path
           style="fill:none;stroke:#000000;stroke-width:1.61013234px;stroke-linecap:butt;stroke-linejoin:miter;stroke-opacity:1;marker-end:url(#Arrow2Mend-9)"
           d="m 416.39952,-585.77547 28.7945,-0.33258"
           id="path5836"
           inkscape:connector-curvature="0" />
        <path
           style="fill:none;stroke:#000000;stroke-width:1.61013234px;stroke-linecap:butt;stroke-linejoin:miter;stroke-opacity:1;marker-end:url(#Arrow2Mend-9)"
           d="m 415.40662,-569.81145 29.45644,-15.29883"
           id="path5838"
           inkscape:connector-curvature="0" />
        <path
           style="fill:none;stroke:#000000;stroke-width:1.61013234px;stroke-linecap:butt;stroke-linejoin:miter;stroke-opacity:1;marker-end:url(#Arrow2Mend-9)"
           d="m 416.39956,-533.72613 28.46351,13.30334"
           id="path5834-3"
           inkscape:connector-curvature="0" />
        <path
           style="fill:none;stroke:#000000;stroke-width:1.61013234px;stroke-linecap:butt;stroke-linejoin:miter;stroke-opacity:1;marker-end:url(#Arrow2Mend-9)"
           d="m 416.39956,-518.75988 28.79449,-0.33259"
           id="path5836-3"
           inkscape:connector-curvature="0" />
        <path
           style="fill:none;stroke:#000000;stroke-width:1.61013234px;stroke-linecap:butt;stroke-linejoin:miter;stroke-opacity:1;marker-end:url(#Arrow2Mend-9)"
           d="m 415.40665,-502.79587 29.45644,-15.29883"
           id="path5838-1"
           inkscape:connector-curvature="0" />
        <text
           xml:space="preserve"
           style="font-size:28.98237991px;font-style:normal;font-variant:normal;font-weight:normal;font-stretch:normal;text-align:start;line-height:125%;letter-spacing:0px;word-spacing:0px;writing-mode:lr-tb;text-anchor:start;fill:#000000;fill-opacity:1;stroke:none;font-family:Liberation Serif;-inkscape-font-specification:Liberation Serif"
           x="265.12711"
           y="-434.72269"
           id="text6991"
           sodipodi:linespacing="125%"
           transform="scale(0.99757315,1.0024328)"><tspan
             sodipodi:role="line"
             id="tspan6993"
             x="265.12711"
             y="-434.72269">Stage</tspan></text>
        <text
           xml:space="preserve"
           style="font-size:28.98237991px;font-style:normal;font-variant:normal;font-weight:normal;font-stretch:normal;text-align:start;line-height:125%;letter-spacing:0px;word-spacing:0px;writing-mode:lr-tb;text-anchor:start;fill:#000000;fill-opacity:1;stroke:none;font-family:Liberation Serif;-inkscape-font-specification:Liberation Serif"
           x="447.27231"
           y="-435.71802"
           id="text6995"
           sodipodi:linespacing="125%"
           transform="scale(0.99757315,1.0024328)"><tspan
             sodipodi:role="line"
             id="tspan6997"
             x="447.27231"
             y="-435.71802">Stage</tspan></text>
        <text
           xml:space="preserve"
           style="font-size:28.98237991px;font-style:normal;font-variant:normal;font-weight:normal;font-stretch:normal;text-align:start;line-height:125%;letter-spacing:0px;word-spacing:0px;writing-mode:lr-tb;text-anchor:start;fill:#000000;fill-opacity:1;stroke:none;font-family:Liberation Serif;-inkscape-font-specification:Liberation Serif"
           x="330.34515"
           y="-649.3692"
           id="text7003"
           sodipodi:linespacing="125%"
           transform="scale(0.99757315,1.0024328)"><tspan
             sodipodi:role="line"
             id="tspan7005"
             x="330.34515"
             y="-649.3692">Grouping</tspan></text>
        <rect
           style="fill:#3878ac;fill-opacity:1;stroke:#000000;stroke-width:1.61013234;stroke-linejoin:round;stroke-miterlimit:0.89999998;stroke-opacity:1;stroke-dasharray:none;stroke-dashoffset:0"
           id="rect7009"
           width="32.124493"
           height="32.280987"
           x="369.69907"
           y="-570.24652"
           ry="1.1038882" />
        <path
           style="fill:none;stroke:#000000;stroke-width:1.61013234px;stroke-linecap:butt;stroke-linejoin:miter;stroke-opacity:1"
           d="m 369.6991,-570.24649 32.12449,32.281"
           id="path7011"
           inkscape:connector-curvature="0" />
        <path
           style="fill:none;stroke:#000000;stroke-width:1.61013234px;stroke-linecap:butt;stroke-linejoin:miter;stroke-opacity:1"
           d="m 369.6991,-537.96549 32.12449,-32.281"
           id="path7013"
           inkscape:connector-curvature="0" />
        <path
           style="fill:none;stroke:#000000;stroke-width:1.61013234px;stroke-linecap:butt;stroke-linejoin:miter;stroke-opacity:1"
           d="m 369.6991,-554.106 32.12449,0"
           id="path7015"
           inkscape:connector-curvature="0" />
        <path
           sodipodi:type="arc"
           style="fill:#000000;fill-opacity:1;stroke:#000000;stroke-width:1;stroke-linejoin:round;stroke-miterlimit:0.89999998;stroke-opacity:1;stroke-dasharray:none;stroke-dashoffset:0"
           id="path7029"
           sodipodi:cx="289.14795"
           sodipodi:cy="154.9751"
           sodipodi:rx="0.94707066"
           sodipodi:ry="1.0199223"
           d="m 290.09502,154.9751 c 0,0.56329 -0.42402,1.01992 -0.94707,1.01992 -0.52305,0 -0.94707,-0.45663 -0.94707,-1.01992 0,-0.56329 0.42402,-1.01992 0.94707,-1.01992 0.52305,0 0.94707,0.45663 0.94707,1.01992 z"
           transform="matrix(1.6062247,0,0,1.6140494,-233.57131,-804.19729)" />
        <path
           transform="matrix(1.6062247,0,0,1.6140494,-216.99801,-804.19729)"
           sodipodi:type="arc"
           style="fill:#000000;fill-opacity:1;stroke:#000000;stroke-width:1;stroke-linejoin:round;stroke-miterlimit:0.89999998;stroke-opacity:1;stroke-dasharray:none;stroke-dashoffset:0"
           id="path7029-2-9"
           sodipodi:cx="289.14795"
           sodipodi:cy="154.9751"
           sodipodi:rx="0.94707066"
           sodipodi:ry="1.0199223"
           d="m 290.09502,154.9751 c 0,0.56329 -0.42402,1.01992 -0.94707,1.01992 -0.52305,0 -0.94707,-0.45663 -0.94707,-1.01992 0,-0.56329 0.42402,-1.01992 0.94707,-1.01992 0.52305,0 0.94707,0.45663 0.94707,1.01992 z" />
        <path
           transform="matrix(1.6062247,0,0,1.6140494,-225.26316,-804.04845)"
           sodipodi:type="arc"
           style="fill:#000000;fill-opacity:1;stroke:#000000;stroke-width:1;stroke-linejoin:round;stroke-miterlimit:0.89999998;stroke-opacity:1;stroke-dasharray:none;stroke-dashoffset:0"
           id="path7029-2-9-8"
           sodipodi:cx="289.14795"
           sodipodi:cy="154.9751"
           sodipodi:rx="0.94707066"
           sodipodi:ry="1.0199223"
           d="m 290.09502,154.9751 c 0,0.56329 -0.42402,1.01992 -0.94707,1.01992 -0.52305,0 -0.94707,-0.45663 -0.94707,-1.01992 0,-0.56329 0.42402,-1.01992 0.94707,-1.01992 0.52305,0 0.94707,0.45663 0.94707,1.01992 z" />
        <path
           sodipodi:type="arc"
           style="fill:#000000;fill-opacity:1;stroke:#000000;stroke-width:1;stroke-linejoin:round;stroke-miterlimit:0.89999998;stroke-opacity:1;stroke-dasharray:none;stroke-dashoffset:0"
           id="path7029-7"
           sodipodi:cx="289.14795"
           sodipodi:cy="154.9751"
           sodipodi:rx="0.94707066"
           sodipodi:ry="1.0199223"
           d="m 290.09502,154.9751 c 0,0.56329 -0.42402,1.01992 -0.94707,1.01992 -0.52305,0 -0.94707,-0.45663 -0.94707,-1.01992 0,-0.56329 0.42402,-1.01992 0.94707,-1.01992 0.52305,0 0.94707,0.45663 0.94707,1.01992 z"
           transform="matrix(1.6062247,0,0,1.6140494,52.169897,-804.28363)" />
        <path
           transform="matrix(1.6062247,0,0,1.6140494,68.743197,-804.28363)"
           sodipodi:type="arc"
           style="fill:#000000;fill-opacity:1;stroke:#000000;stroke-width:1;stroke-linejoin:round;stroke-miterlimit:0.89999998;stroke-opacity:1;stroke-dasharray:none;stroke-dashoffset:0"
           id="path7029-2-9-85"
           sodipodi:cx="289.14795"
           sodipodi:cy="154.9751"
           sodipodi:rx="0.94707066"
           sodipodi:ry="1.0199223"
           d="m 290.09502,154.9751 c 0,0.56329 -0.42402,1.01992 -0.94707,1.01992 -0.52305,0 -0.94707,-0.45663 -0.94707,-1.01992 0,-0.56329 0.42402,-1.01992 0.94707,-1.01992 0.52305,0 0.94707,0.45663 0.94707,1.01992 z" />
        <path
           transform="matrix(1.6062247,0,0,1.6140494,60.478048,-804.1348)"
           sodipodi:type="arc"
           style="fill:#000000;fill-opacity:1;stroke:#000000;stroke-width:1;stroke-linejoin:round;stroke-miterlimit:0.89999998;stroke-opacity:1;stroke-dasharray:none;stroke-dashoffset:0"
           id="path7029-2-9-8-2"
           sodipodi:cx="289.14795"
           sodipodi:cy="154.9751"
           sodipodi:rx="0.94707066"
           sodipodi:ry="1.0199223"
           d="m 290.09502,154.9751 c 0,0.56329 -0.42402,1.01992 -0.94707,1.01992 -0.52305,0 -0.94707,-0.45663 -0.94707,-1.01992 0,-0.56329 0.42402,-1.01992 0.94707,-1.01992 0.52305,0 0.94707,0.45663 0.94707,1.01992 z" />
      </g>
      <rect
         transform="translate(296.66156,-358.24301)"
         y="-842.70599"
         x="-227.11807"
         height="340"
         width="620"
         id="rect3207"
         style="opacity:0;fill:#000000;fill-opacity:0;stroke:#000000;stroke-width:1;stroke-linejoin:round;stroke-miterlimit:4;stroke-opacity:1;stroke-dasharray:8, 1;stroke-dashoffset:0" />
    </g>
  </g>
</svg>
